<?xml version="1.0" encoding="UTF-8" standalone="no"?>
<svg
   width="16"
   height="16"
   viewBox="0 0 16 16"
   fill="none"
   version="1.1"
   id="svg4"
   sodipodi:docname="483cbf72-7d8c-485d-8c54-098c4da8715d.svg"
   xmlns:inkscape="http://www.inkscape.org/namespaces/inkscape"
   xmlns:sodipodi="http://sodipodi.sourceforge.net/DTD/sodipodi-0.dtd"
   xmlns="http://www.w3.org/2000/svg"
   xmlns:svg="http://www.w3.org/2000/svg">
  <defs
     id="defs4" />
  <sodipodi:namedview
     id="namedview4"
     pagecolor="#ffffff"
     bordercolor="#000000"
     borderopacity="0.25"
     inkscape:showpageshadow="2"
     inkscape:pageopacity="0.0"
     inkscape:pagecheckerboard="0"
     inkscape:deskcolor="#d1d1d1" />
  <path
     d="M11.3335 6.66665H12.6668C14.0002 6.66665 14.6668 5.99998 14.6668 4.66665V3.33331C14.6668 1.99998 14.0002 1.33331 12.6668 1.33331H11.3335C10.0002 1.33331 9.3335 1.99998 9.3335 3.33331V4.66665C9.3335 5.99998 10.0002 6.66665 11.3335 6.66665Z"
     stroke="#0A2A51"
     stroke-width="1.5"
     stroke-miterlimit="10"
     stroke-linecap="round"
     stroke-linejoin="round"
     id="path1" />
  <path
     d="M3.3335 14.6666H4.66683C6.00016 14.6666 6.66683 14 6.66683 12.6666V11.3333C6.66683 9.99998 6.00016 9.33331 4.66683 9.33331H3.3335C2.00016 9.33331 1.3335 9.99998 1.3335 11.3333V12.6666C1.3335 14 2.00016 14.6666 3.3335 14.6666Z"
     stroke="#0A2A51"
     stroke-width="1.5"
     stroke-miterlimit="10"
     stroke-linecap="round"
     stroke-linejoin="round"
     id="path2" />
  <path
     d="M4.00016 6.66665C5.47292 6.66665 6.66683 5.47274 6.66683 3.99998C6.66683 2.52722 5.47292 1.33331 4.00016 1.33331C2.5274 1.33331 1.3335 2.52722 1.3335 3.99998C1.3335 5.47274 2.5274 6.66665 4.00016 6.66665Z"
     stroke="#0A2A51"
     stroke-width="1.5"
     stroke-miterlimit="10"
     stroke-linecap="round"
     stroke-linejoin="round"
     id="path3" />
  <path
     d="M12.0002 14.6666C13.4729 14.6666 14.6668 13.4727 14.6668 12C14.6668 10.5272 13.4729 9.33331 12.0002 9.33331C10.5274 9.33331 9.3335 10.5272 9.3335 12C9.3335 13.4727 10.5274 14.6666 12.0002 14.6666Z"
     stroke="#0A2A51"
     stroke-width="1.5"
     stroke-miterlimit="10"
     stroke-linecap="round"
     stroke-linejoin="round"
     id="path4" />
</svg>
