<svg width="24" height="24" viewBox="0 0 24 24" fill="none" xmlns="http://www.w3.org/2000/svg">
<g clip-path="url(#clip0_6868_385)">
<path d="M14.2968 11.9978C14.2968 13.2664 13.2684 14.2947 11.9999 14.2947C10.7313 14.2947 9.703 13.2664 9.703 11.9978C9.703 10.7292 10.7313 9.70093 11.9999 9.70093C13.2684 9.70093 14.2968 10.7292 14.2968 11.9978Z" fill="#FFFFFF"/>
<path d="M17.3709 7.9328C17.2605 7.63361 17.0844 7.36279 16.8555 7.1405C16.6332 6.91162 16.3626 6.73547 16.0632 6.62506C15.8204 6.53076 15.4557 6.41852 14.7838 6.38794C14.0571 6.3548 13.8392 6.34766 11.9994 6.34766C10.1593 6.34766 9.94144 6.35461 9.21487 6.38776C8.54306 6.41852 8.17813 6.53076 7.93552 6.62506C7.63614 6.73547 7.36533 6.91162 7.14322 7.1405C6.91434 7.36279 6.73819 7.63342 6.62759 7.9328C6.53329 8.1756 6.42105 8.54053 6.39047 9.21234C6.35733 9.9389 6.35019 10.1568 6.35019 11.9968C6.35019 13.8367 6.35733 14.0546 6.39047 14.7813C6.42105 15.4531 6.53329 15.8179 6.62759 16.0607C6.73819 16.36 6.91415 16.6307 7.14304 16.853C7.36533 17.0818 7.63596 17.258 7.93533 17.3684C8.17813 17.4629 8.54306 17.5751 9.21487 17.6057C9.94144 17.6389 10.1591 17.6458 11.9992 17.6458C13.8394 17.6458 14.0573 17.6389 14.7837 17.6057C15.4555 17.5751 15.8204 17.4629 16.0632 17.3684C16.6642 17.1366 17.1391 16.6616 17.3709 16.0607C17.4652 15.8179 17.5775 15.4531 17.6082 14.7813C17.6414 14.0546 17.6483 13.8367 17.6483 11.9968C17.6483 10.1568 17.6414 9.9389 17.6082 9.21234C17.5777 8.54053 17.4654 8.1756 17.3709 7.9328ZM11.9994 15.535C10.0451 15.535 8.46085 13.9509 8.46085 11.9966C8.46085 10.0424 10.0451 8.45831 11.9994 8.45831C13.9535 8.45831 15.5377 10.0424 15.5377 11.9966C15.5377 13.9509 13.9535 15.535 11.9994 15.535ZM15.6776 9.14532C15.2209 9.14532 14.8507 8.77509 14.8507 8.31842C14.8507 7.86176 15.2209 7.49152 15.6776 7.49152C16.1342 7.49152 16.5045 7.86176 16.5045 8.31842C16.5043 8.77509 16.1342 9.14532 15.6776 9.14532Z" fill="#FFFFFF"/>
</g>
<defs>
<clipPath id="clip0_6868_385">
<rect width="24" height="24" fill="white"/>
</clipPath>
</defs>
</svg>
