<svg width="14" height="14" viewBox="0 0 24 24" fill="none"
     xmlns="http://www.w3.org/2000/svg">
  <!-- YouTube body -->
  <path
    d="M23.498 6.186a2.958 2.958 0 0 0-2.08-2.094C19.594 3.5 12 3.5 12 3.5s-7.594 0-9.418.592A2.958 2.958 0 0 0 .502 6.186C0 8.02 0 12 0 12s0 3.98.502 5.814a2.958 2.958 0 0 0 2.08 2.094C4.406 20.5 12 20.5 12 20.5s7.594 0 9.418-.592a2.958 2.958 0 0 0 2.08-2.094C24 15.98 24 12 24 12s0-3.98-.502-5.814Z"
    fill="#FFFFFF"
  />

  <!-- Play icon -->
  <path
    d="M9.545 15.568 15.818 12 9.545 8.432v7.136Z"
    fill="#F180A9"
  />
</svg>